<?xml version="1.0" encoding="UTF-8"?>
<svg id="Layer_1" data-name="Layer 1" xmlns="http://www.w3.org/2000/svg" viewBox="0 0 250 150">
  <defs>
    <style>
      .cls-1 {
        fill: #1abab7;
      }

      .cls-1, .cls-2, .cls-3 {
        stroke-width: 0px;
      }

      .cls-2 {
        fill: #142f42;
      }

      .cls-3 {
        fill: #fff;
      }
    </style>
  </defs>
  <rect class="cls-3" x="-2.86" y="-9.7" width="267.14" height="169.25"/>
  <g>
    <path class="cls-2" d="M80.71,18.65l-5.51-.2-3.05,9.28c-.14.47-.4,1.09-.98,1.49-1.39.98-1.89.43-3.66-.2-3.63-1.3-7.2-1.51-8.8-1.37-4.81.42-8.54,5.4-10.14,8.84-3.55,7.65.37,15.09,1.29,16.83,2.65,5.02,6.63,7.69,8.54,8.8,7.39,1.37,13.1,3.65,16.93,5.47,5.9,2.82,10,4.77,13.27,9.4,1.09,1.54,5.34,6.59,4.04,13.26-1.97,10.15-10.01,15.2-11.38,16.03-1.07.62-5.71,3.14-11.64,1.82-5.15-1.15-8.11-4.48-8.99-5.55-3.6-5.01-4-11.57-1.03-16.67,3.54-6.07,10.26-7.16,11.87-7.36,1.56-.19,2.83-.09,3.44-.03.17.02.29.04.31.04,24.25,3.23,56.35.75,56.35.75,6.27-.48,5.41-.58,15.62-1.54,32.95-3.1,54.61-3.33,54.61-3.56,0-.27-28.5.06-119.99,1.79l-21.18-6.92.83,1.94c-1.47.83-8.88,5.23-11.48,14.63-2.92,10.56,2.57,18.96,3.38,20.16,1.15,1.7,4.57,6.27,11.01,8.76,6.53,2.52,12.21,1.36,14.19.86,2.42-.47,9.64-2.2,15.59-8.76,5.35-5.9,6.66-12.37,7.03-14.89.37-2.49,1.64-10.14-2.39-18.21-2.59-5.18-6.17-8.09-9.8-10.97-13.7-10.87-26.87-11.04-27.7-17.78-.32-2.59.97-5.27,1.08-5.48.19-.37,2.62-4.9,6.5-4.83,1.83.03,3.2,1.07,4.09,1.75,1.9,1.44,2.75,3.15,3.43,4.43,1.12,2.11,2.84,5.02,5.43,8.52-.05-2.44-.37-6.03-1.72-10.11-.78-2.35-1.32-3.46-1.89-4.69-1.23-2.64-1.58-7.22,2.46-15.74Z"/>
    <path class="cls-2" d="M102.08,55.3c1.94,4.08,3.93,9.08,5.5,14.92,2.19,8.19,2.86,15.5,2.95,21.2-.45,3.04-2.48,14.41-12.57,22.78-14.3,11.86-32.11,7.15-33.77,6.68,2.79,2.17,7.54,5.15,13.94,6.09,16.85,2.48,29.16-11.49,30.24-12.76,1.89-2.47,4.08-5.93,5.69-10.41.74-2.04,1.23-3.97,1.57-5.69.58-6.34.63-14.68-1.28-24.16-.97-4.81-2.26-9.08-3.63-12.75,1.94-.86,5.22-2.01,9.42-2.16,4.03-.14,7.25.7,9.23,1.37.9,6.4,1.54,11.77,1.96,15.71,2.02,18.56,1.7,25.45,1.37,29.45-.32,3.94-.81,7.15-1.18,9.23,8.84,4.71,17.67,9.42,26.51,14.14-3.54-2.42-7.77-5.95-11.58-11-1.22-1.61-2.25-3.2-3.14-4.71-.5-1.66-1.24-4.26-1.96-7.46-2.6-11.44-2.43-18.94-3.34-34.16-.25-4.22-.67-10.45-1.37-18.06-5.06-.92-11.78-1.62-19.63-.98-5.83.47-10.87,1.57-14.92,2.75Z"/>
    <g>
      <path class="cls-1" d="M80.83,28.66h6.59v4.91h-6.59v-4.91ZM86.68,18.36h5.61c.21,10.7.41,21.41.62,32.11-.66-.27-1.39-.54-2.19-.78-1.49-.44-2.87-.66-4.04-.77v-30.56Z"/>
      <path class="cls-1" d="M96.93,39.69v-12.09c0-2.08.26-3.85.78-5.32.52-1.47,1.4-2.58,2.63-3.35,1.23-.76,2.88-1.15,4.93-1.15s3.73.39,4.95,1.15c1.22.77,2.09,1.89,2.61,3.35.52,1.47.78,3.24.78,5.32v12.09c0,2.08-.26,3.85-.78,5.32-.52,1.47-1.39,2.59-2.61,3.35s-2.87,1.15-4.95,1.15-3.7-.38-4.93-1.15c-1.23-.77-2.11-1.88-2.63-3.35-.52-1.47-.78-3.24-.78-5.32ZM102.54,39.69c0,1.9.18,3.22.53,3.97.35.76,1.09,1.13,2.2,1.13s1.81-.38,2.16-1.13c.35-.75.53-2.08.53-3.97v-12.09c0-1.9-.18-3.22-.53-3.98-.35-.75-1.07-1.13-2.16-1.13s-1.85.38-2.2,1.13-.53,2.08-.53,3.98v12.09Z"/>
      <path class="cls-1" d="M143.17,18.36l2.5,33.08c-.62-.47-1.43-.99-2.41-1.45-1.3-.6-2.48-.91-3.4-1.07-.25-4.91-.49-9.82-.74-14.74l-.35-11.15h-.9l-1.32,10.95c-.09,4.92-.17,9.85-.26,14.77-1.12-.38-2.62-.77-4.42-.92-1.61-.14-3.01-.05-4.11.1-.63-4.74-1.27-9.48-1.9-14.22l-1.29-10.68h-.86l-.35,11.11c-.25,4.7-.49,9.4-.74,14.1-.86-.13-1.98-.21-3.29-.1-1.24.11-2.28.36-3.08.62,1.02-10.14,2.04-20.27,3.06-30.41h9.24l1.36,11.85,1.29,14.15h.04l1.25-14.07,1.4-11.93h9.28Z"/>
      <path class="cls-1" d="M149.33,18.36h5.57l-.16,32.02-5.42.62V18.36Z"/>
    </g>
    <g>
      <path class="cls-1" d="M144.35,80.19c2.35-.18,4.7-.35,7.06-.53-.61,3.63-1.07,7.77-1.17,12.33-.18,8.1.82,15.11,2.05,20.63h-5.87c-1.65-5.56-3.17-13.02-3.02-21.84.06-3.89.44-7.44.96-10.59ZM152.87,97.81c1.28,0,2.29-.22,3.02-.67.73-.45,1.24-1.17,1.55-2.16.31-.99.46-2.33.46-4.01s-.14-2.96-.42-3.84c-.28-.88-.76-1.49-1.43-1.82-.67-.34-1.62-.51-2.85-.51h-2.64v-5.07h2.85c2.27,0,4.18.33,5.75.99,1.56.66,2.75,1.8,3.57,3.42s1.22,3.86,1.22,6.71c0,4.14-.97,7.15-2.89,9.04s-4.59,2.83-7.97,2.83h-1.47v-4.91h1.27ZM159.28,100.54l5.16,12.08h-6.29l-4.74-12.08h5.87Z"/>
      <path class="cls-1" d="M166.42,79.73l17.77-1.38-.62,6.79h-17.16v-5.41ZM171.99,79.73h6.04v32.89h-6.04v-32.89Z"/>
      <path class="cls-1" d="M194.07,76.69c2.07,0,3.7.33,4.89.99,1.19.66,2.05,1.67,2.58,3.02.53,1.36.8,3.1.8,5.22l-.21,2.77h-5.58v-2.35c0-1.76-.15-3-.46-3.71-.31-.71-.98-1.07-2.01-1.07-.98,0-1.64.28-1.99.84-.35.56-.52,1.57-.52,3.02,0,1.26.27,2.33.82,3.23.54.9,1.24,1.68,2.1,2.37.85.69,1.75,1.37,2.7,2.05.95.69,1.85,1.43,2.68,2.24.84.81,1.53,1.78,2.08,2.92.54,1.13,1.48,4.93,1.48,6.58,0,2.77-.71,4.87-2.12,6.29-1.41,1.43-3.63,2.14-6.65,2.14s-5.21-.68-6.56-2.03c-1.36-1.35-2.03-3.5-2.03-6.44l.13-1.72h5.66v1.51c0,1.54.21,2.59.63,3.17s1.15.86,2.18.86,1.73-.25,2.16-.75c.43-.5.65-1.44.65-2.81,0-1.09-.94-4.43-1.48-5.2-.55-.77-1.24-1.47-2.08-2.12-.84-.64-1.73-1.31-2.68-2.02-.95-.7-1.85-1.49-2.71-2.39-.85-.9-1.54-2-2.08-3.32-.53-1.31-.8-2.91-.8-4.78,0-2.79.67-4.91,2.01-6.35,1.34-1.44,3.48-2.16,6.42-2.16Z"/>
    </g>
  </g>
</svg>