<?xml version="1.0" encoding="UTF-8"?>
<svg id="Layer_1" data-name="Layer 1" xmlns="http://www.w3.org/2000/svg" viewBox="0 0 250 150">
  <defs>
    <style>
      .cls-1 {
        fill: #1abab7;
      }

      .cls-1, .cls-2 {
        stroke-width: 0px;
      }

      .cls-2 {
        fill: #142f42;
      }
    </style>
  </defs>
  <path class="cls-2" d="M76.05,14.9l-6.06-.22-3.35,10.19c-.15.51-.44,1.2-1.08,1.64-1.53,1.07-2.08.47-4.02-.22-3.99-1.43-7.91-1.66-9.67-1.5-5.29.46-9.38,5.93-11.14,9.71-3.9,8.4.41,16.58,1.42,18.49,2.91,5.52,7.28,8.45,9.39,9.67,8.12,1.51,14.39,4.01,18.6,6.01,6.49,3.09,10.99,5.24,14.58,10.32,1.2,1.69,5.86,7.24,4.44,14.57-2.16,11.15-11,16.7-12.5,17.61-1.18.68-6.27,3.45-12.79,1.99-5.65-1.26-8.91-4.92-9.88-6.1-3.96-5.5-4.39-12.71-1.13-18.31,3.89-6.67,11.27-7.87,13.04-8.09,1.72-.21,3.11-.1,3.77-.03.18.02.32.04.34.04,26.64,3.55,61.91.83,61.91.83,6.89-.53,5.94-.63,17.16-1.69,36.2-3.41,60-3.65,59.99-3.92,0-.3-31.31.06-131.83,1.97l-23.27-7.61.91,2.13c-1.61.92-9.75,5.75-12.61,16.08-3.21,11.6,2.82,20.83,3.72,22.15,1.26,1.87,5.03,6.89,12.1,9.62,7.17,2.76,13.42,1.49,15.6.95,2.66-.52,10.59-2.42,17.13-9.62,5.88-6.48,7.32-13.59,7.73-16.36.41-2.74,1.81-11.14-2.63-20-2.85-5.69-6.78-8.89-10.77-12.05-15.05-11.94-29.53-12.13-30.43-19.53-.35-2.84,1.07-5.79,1.19-6.02.21-.41,2.87-5.38,7.14-5.31,2.01.04,3.51,1.18,4.5,1.93,2.08,1.58,3.02,3.47,3.76,4.86,1.24,2.32,3.12,5.51,5.97,9.36-.06-2.68-.41-6.62-1.89-11.11-.86-2.59-1.45-3.8-2.08-5.15-1.35-2.9-1.74-7.93,2.7-17.29Z"/>
  <path class="cls-2" d="M99.52,55.17c2.13,4.48,4.32,9.97,6.04,16.39,2.41,9,3.14,17.03,3.24,23.3-.49,3.34-2.73,15.83-13.81,25.02-15.72,13.03-35.27,7.85-37.1,7.33,3.07,2.38,8.28,5.65,15.32,6.69,18.51,2.72,32.03-12.63,33.22-14.02,2.07-2.71,4.48-6.52,6.26-11.43.81-2.25,1.36-4.36,1.73-6.26.63-6.97.69-16.13-1.4-26.54-1.06-5.29-2.49-9.98-3.99-14.01,2.13-.94,5.73-2.21,10.35-2.37,4.42-.16,7.97.76,10.14,1.51.99,7.03,1.69,12.93,2.16,17.26,2.22,20.39,1.87,27.96,1.51,32.36-.35,4.33-.89,7.85-1.29,10.14,9.71,5.18,19.41,10.35,29.12,15.53-3.89-2.65-8.54-6.53-12.73-12.08-1.34-1.77-2.48-3.51-3.45-5.18-.55-1.83-1.36-4.68-2.16-8.2-2.86-12.57-2.67-20.81-3.67-37.53-.28-4.64-.74-11.48-1.51-19.85-5.56-1.01-12.95-1.78-21.57-1.08-6.41.52-11.94,1.72-16.39,3.02Z"/>
  <g>
    <path class="cls-1" d="M76.18,25.89h7.24v5.4h-7.24v-5.4ZM82.6,14.58h6.17c.23,11.76.45,23.52.68,35.28-.72-.3-1.53-.59-2.41-.85-1.64-.48-3.15-.73-4.44-.85V14.58Z"/>
    <path class="cls-1" d="M93.87,38.01v-13.28c0-2.28.28-4.23.86-5.85.57-1.61,1.54-2.84,2.89-3.68,1.36-.84,3.16-1.26,5.42-1.26s4.1.42,5.44,1.26c1.34.84,2.3,2.07,2.87,3.68.57,1.61.86,3.56.86,5.85v13.28c0,2.28-.29,4.23-.86,5.84-.57,1.61-1.53,2.84-2.87,3.68s-3.16,1.26-5.44,1.26-4.06-.42-5.42-1.26c-1.36-.84-2.32-2.07-2.89-3.68-.57-1.61-.86-3.56-.86-5.84ZM100.03,38.01c0,2.08.19,3.54.58,4.37.38.83,1.19,1.24,2.42,1.24s1.99-.41,2.38-1.24c.38-.83.58-2.28.58-4.37v-13.28c0-2.08-.19-3.54-.58-4.37-.39-.83-1.18-1.24-2.38-1.24s-2.04.41-2.42,1.24-.58,2.29-.58,4.37v13.28Z"/>
    <path class="cls-1" d="M144.66,14.58l2.75,36.35c-.68-.51-1.57-1.08-2.65-1.59-1.42-.66-2.73-1-3.73-1.18-.27-5.4-.54-10.79-.81-16.19l-.38-12.25h-.99l-1.46,12.04c-.09,5.41-.19,10.82-.28,16.23-1.24-.42-2.88-.85-4.85-1.02-1.77-.15-3.31-.05-4.51.11-.7-5.21-1.39-10.42-2.09-15.63l-1.41-11.74h-.94l-.39,12.21c-.27,5.16-.54,10.33-.81,15.49-.95-.14-2.18-.24-3.61-.11-1.36.12-2.5.4-3.39.68,1.12-11.14,2.24-22.27,3.36-33.41h10.15l1.5,13.02,1.41,15.55h.04l1.37-15.46,1.54-13.11h10.19Z"/>
    <path class="cls-1" d="M151.43,14.58h6.12l-.17,35.18-5.95.69V14.58Z"/>
  </g>
  <g>
    <path class="cls-1" d="M145.96,82.51c2.58-.19,5.17-.39,7.75-.58-.67,3.99-1.18,8.54-1.29,13.55-.2,8.9.9,16.6,2.25,22.67h-6.45c-1.82-6.11-3.48-14.31-3.32-24,.07-4.28.48-8.18,1.06-11.63ZM155.32,101.87c1.41,0,2.52-.25,3.32-.74.8-.49,1.37-1.28,1.7-2.37.34-1.09.51-2.56.51-4.4s-.15-3.25-.46-4.22c-.31-.97-.83-1.64-1.57-2-.74-.37-1.78-.56-3.13-.56h-2.9v-5.57h3.13c2.49,0,4.59.36,6.31,1.08,1.72.72,3.03,1.97,3.92,3.76s1.34,4.24,1.34,7.37c0,4.55-1.06,7.86-3.18,9.93-2.12,2.07-5.04,3.11-8.76,3.11h-1.62v-5.39h1.39ZM162.37,104.86l5.67,13.27h-6.91l-5.21-13.27h6.45Z"/>
    <path class="cls-1" d="M170.21,82.01l19.53-1.51-.68,7.46h-18.85v-5.94ZM176.34,82.01h6.64v36.13h-6.64v-36.13Z"/>
    <path class="cls-1" d="M200.59,78.67c2.27,0,4.06.36,5.37,1.08,1.31.72,2.25,1.83,2.83,3.32.58,1.49.88,3.4.88,5.74l-.23,3.04h-6.13v-2.58c0-1.94-.17-3.29-.51-4.08-.34-.78-1.08-1.18-2.21-1.18-1.08,0-1.8.31-2.19.92-.39.62-.58,1.72-.58,3.32,0,1.38.3,2.57.9,3.55.6.98,1.37,1.85,2.3,2.6.94.75,1.93,1.51,2.97,2.26,1.04.75,2.03,1.58,2.95,2.47.92.89,1.68,1.96,2.28,3.2.6,1.24,1.63,5.42,1.63,7.23,0,3.04-.78,5.35-2.33,6.91-1.55,1.57-3.99,2.35-7.31,2.35s-5.72-.74-7.21-2.24c-1.49-1.49-2.24-3.85-2.24-7.07l.14-1.89h6.22v1.66c0,1.69.23,2.85.69,3.48s1.26.94,2.4.94,1.9-.28,2.37-.83c.48-.55.71-1.58.71-3.09,0-1.2-1.03-4.87-1.63-5.71-.6-.84-1.36-1.62-2.28-2.33-.92-.71-1.91-1.44-2.95-2.21-1.05-.77-2.04-1.64-2.97-2.63-.94-.98-1.7-2.2-2.28-3.64-.58-1.44-.88-3.19-.88-5.25,0-3.07.74-5.4,2.21-6.98,1.47-1.58,3.82-2.37,7.05-2.37Z"/>
  </g>
</svg>